<svg width="500" height="500" viewBox="0 0 500 500" fill="none" xmlns="http://www.w3.org/2000/svg">
<rect width="500" height="500" rx="5" fill="#3C6E71"/>
<path d="M409.167 353.917L380.302 363.656C372.333 366.313 365.958 372.51 363.302 380.656L353.562 409.521C345.24 434.49 310.177 433.958 302.385 408.99L269.625 303.625C263.25 282.729 282.552 263.25 303.271 269.802L408.812 302.563C433.604 310.354 433.958 345.594 409.167 353.917Z" fill="white"/>
<path d="M409.875 241.646C409.875 249.261 409.344 256.875 408.458 264.313C407.75 269.625 402.26 272.813 397.125 271.219L311.24 244.479C292.115 238.636 271.75 243.594 257.583 257.583C243.417 271.75 238.281 292.469 244.302 311.594L270.865 397.125C272.458 402.261 269.094 407.75 263.781 408.458C256.344 409.344 249.083 409.875 241.646 409.875C147.083 409.875 70.9375 332.136 73.4167 236.865C75.8958 149.031 149.031 75.8959 236.865 73.4168C332.135 70.9376 409.875 147.083 409.875 241.646Z" fill="white"/>
</svg>
